<?xml version="1.0" encoding="utf-8"?>
<svg viewBox="315.933 147.519 84.734 78.051" width="84.734" height="78.051" xmlns="http://www.w3.org/2000/svg">
  <g transform="matrix(1, 0, 0, 1, 72.284615, 1.84961)">
    <path d="M 307.544 184.737 C 300.737 173.538 284.474 182.354 285.322 191.472 C 286.169 200.59 285.322 215.306 285.322 215.306 C 303.45 214.271 299.541 207.31 297.602 202.353 C 295.663 197.397 311.637 191.472 307.544 184.737 Z" stroke-width="4" style="fill: rgba(255, 193, 249, 0); stroke: rgb(209, 178, 179);" transform="matrix(0.791328, 0.611392, -0.611392, 0.791328, 182.608593, -140.242601)"/>
    <path d="M 256.453 162.295 C 263.26 151.096 279.523 159.913 278.675 169.03 C 277.828 178.148 278.675 192.865 278.675 192.865 C 260.547 191.829 264.456 184.868 266.395 179.912 C 268.334 174.955 252.36 169.03 256.453 162.295 Z" style="stroke-width: 4px; fill: rgba(255, 193, 249, 0); stroke: rgb(209, 178, 179);" transform="matrix(0.791328, 0.611392, -0.611392, 0.791328, 162.730029, -126.882823)"/>
    <path d="M 281.711 167.369 C 272.831 167.369 268.223 205.851 281.711 206.693 C 295.199 207.535 290.59 167.369 281.711 167.369 Z" stroke-width="4" style="fill: rgba(74, 97, 125, 0); stroke: rgb(209, 178, 179);" transform="matrix(0.791328, 0.611392, -0.611392, 0.791328, 173.138447, -133.206233)"/>
    <path d="M 295.705 174.322 C 296.34 172.029 298.556 170.232 300.895 169.714" stroke-width="4" stroke-linecap="round" style="stroke: rgb(209, 178, 179);" transform="matrix(0.791328, 0.611392, -0.611392, 0.791328, 167.417325, -146.482867)"/>
    <path d="M 294.075 169.741 C 293.44 167.449 291.36 165.538 288.992 164.616" stroke-width="4" stroke-linecap="round" style="stroke: rgb(209, 178, 179);" transform="matrix(0.791328, 0.611392, -0.611392, 0.791328, 163.046513, -143.355766)"/>
  </g>
  <g transform="matrix(1, 0, 0, 1, 71.284615, -0.15039)">
    <path d="M 307.544 184.737 C 300.737 173.538 284.474 182.354 285.322 191.472 C 286.169 200.59 285.322 215.306 285.322 215.306 C 303.45 214.271 299.541 207.31 297.602 202.353 C 295.663 197.397 311.637 191.472 307.544 184.737 Z" stroke-width="4" style="fill: rgba(255, 193, 249, 0); stroke: rgb(255, 182, 185);" transform="matrix(0.791328, 0.611392, -0.611392, 0.791328, 182.608593, -140.242601)"/>
    <path d="M 256.453 162.295 C 263.26 151.096 279.523 159.913 278.675 169.03 C 277.828 178.148 278.675 192.865 278.675 192.865 C 260.547 191.829 264.456 184.868 266.395 179.912 C 268.334 174.955 252.36 169.03 256.453 162.295 Z" style="stroke-width: 4px; fill: rgba(255, 193, 249, 0); stroke: rgb(255, 182, 185);" transform="matrix(0.791328, 0.611392, -0.611392, 0.791328, 162.730029, -126.882823)"/>
    <path d="M 281.711 167.369 C 272.831 167.369 268.223 205.851 281.711 206.693 C 295.199 207.535 290.59 167.369 281.711 167.369 Z" stroke-width="4" style="fill: rgba(74, 97, 125, 0); stroke: rgb(255, 182, 185);" transform="matrix(0.791328, 0.611392, -0.611392, 0.791328, 173.138447, -133.206233)"/>
    <path d="M 295.705 174.322 C 296.34 172.029 298.556 170.232 300.895 169.714" stroke-width="4" stroke-linecap="round" style="stroke: rgb(255, 182, 185);" transform="matrix(0.791328, 0.611392, -0.611392, 0.791328, 167.417325, -146.482867)"/>
    <path d="M 294.075 169.741 C 293.44 167.449 291.36 165.538 288.992 164.616" stroke-width="4" stroke-linecap="round" style="stroke: rgb(255, 182, 185);" transform="matrix(0.791328, 0.611392, -0.611392, 0.791328, 163.046513, -143.355766)"/>
  </g>
</svg>